HIERARCHY
ROOT Hips
{
	OFFSET 0.00000 0.00000 0.00000
	CHANNELS 6 Xposition Yposition Zposition Yrotation Zrotation Xrotation 
	JOINT Lumbar
	{
		OFFSET 0 0 0
		CHANNELS 3 Zrotation Xrotation Yrotation
		JOINT Neck
		{
			OFFSET 0.00 0.2701 0.00
			CHANNELS 3 Zrotation Xrotation Yrotation
			End Site
			{
				OFFSET 0.00 0.1379 0.00
			}
		}
		JOINT RightShoulder
		{
			OFFSET 0.0119 0.2289 0.1181
			CHANNELS 3 Zrotation Xrotation Yrotation
			JOINT RightElbow
			{
				OFFSET 0.00 -0.1475 0.00
				CHANNELS 2 Zrotation Yrotation
				JOINT RightWrist
				{
					OFFSET 0.00 -0.1605 0.00
					CHANNELS 2 Zrotation Xrotation
					End Site
					{
						OFFSET 0.0040 -0.1068 0.0006
					}
				}
			}
		}
		JOINT LeftShoulder
		{
			OFFSET 0.0119 0.2289 -0.1181
			CHANNELS 3 Zrotation Xrotation Yrotation
			JOINT LeftElbow
			{
				OFFSET 0.00 -0.1475 0.00
				CHANNELS 2 Zrotation Yrotation
				JOINT LeftWrist
				{
					OFFSET 0.00 -0.1605 0.00
					CHANNELS 2 Zrotation Xrotation
					End Site
					{
						OFFSET 0.0040 -0.1068 -0.0006
					}
				}
			}
		}
	}
	JOINT RightHip
	{
		OFFSET 0.0316 -0.0424 0.0458
		CHANNELS 3 Zrotation Xrotation Yrotation
		JOINT RightKnee
		{
			OFFSET 0.00 -0.2438 0.00
			CHANNELS 1 Zrotation
			JOINT RightAnkle
			{
				OFFSET 0.00 -0.2449 0.00
				CHANNELS 3 Zrotation Xrotation Yrotation
				End Site
				{
					OFFSET 0.1237 -0.0542 0.0051
				}
			}
		}
	}
	JOINT LeftHip
	{
		OFFSET 0.0316 -0.0424 -0.0458
		CHANNELS 3 Zrotation Xrotation Yrotation
		JOINT LeftKnee
		{
			OFFSET 0.00 -0.2438 0.00
			CHANNELS 1 Zrotation
			JOINT LeftAnkle
			{
				OFFSET 0.00 -0.2449 0.00
				CHANNELS 3 Zrotation Xrotation Yrotation
				End Site
				{
					OFFSET 0.1237 -0.0542 -0.0051
				}
			}
		}
	}
}
MOTION
Frames: 22
Frame Time: 0.02
0.0001 1e-05 1e-05 -180.06047 -40.22159 -3.26197 49.79436 2.75678 -2.46268 -21.78678 -1.46551 -0.51151 39.9064 -107.67856 64.17058 13.5627 84.1467 3.71716 -1.90786 26.76212 106.70402 -64.17617 7.91123 -89.01719 6.94798 1.11603 43.99416 -5.68974 -3.28403 -21.84478 -6.98222 -3.88344 -2.68777 48.24064 10.79365 -1.87628 -27.05679 -6.94826 3.36251 2.40225
0.0001 1e-05 2e-05 -180.06576 -40.22645 -3.26424 49.8005 2.75849 -2.46151 -21.76962 -1.4639 -0.51174 39.96354 -107.64876 64.17058 13.54151 84.14752 3.72929 -1.89693 26.73274 106.68193 -64.17513 7.91009 -88.99837 6.9438 1.11439 44.00031 -5.69252 -3.29655 -21.84422 -6.9816 -3.88166 -2.68711 48.24473 10.79053 -1.89017 -27.05641 -6.94768 3.36119 2.40172
0.0001 1e-05 2e-05 -180.07103 -40.23129 -3.2665 49.80661 2.76019 -2.46035 -21.75251 -1.46229 -0.51197 40.02055 -107.61901 64.17059 13.52043 84.14834 3.74134 -1.88601 26.70345 106.65989 -64.1741 7.90896 -88.97959 6.93962 1.11274 44.00644 -5.69531 -3.30904 -21.84367 -6.98097 -3.87989 -2.68646 48.2488 10.78741 -1.90403 -27.05603 -6.9471 3.35986 2.40119
0.0001 1e-05 2e-05 -180.0763 -40.23614 -3.26876 49.81273 2.76189 -2.45919 -21.73541 -1.46069 -0.5122 40.07754 -107.58929 64.17059 13.49931 84.14916 3.75341 -1.87511 26.67415 106.63786 -64.17307 7.90783 -88.96082 6.93545 1.1111 44.01257 -5.69808 -3.32152 -21.84312 -6.98035 -3.87812 -2.6858 48.25288 10.7843 -1.91788 -27.05565 -6.94652 3.35854 2.40066
0.0001 0 3e-05 -180.08159 -40.24101 -3.27103 49.81887 2.7636 -2.458 -21.71825 -1.45909 -0.51243 40.13461 -107.55954 64.1706 13.47808 84.14997 3.76558 -1.86421 26.64479 106.61582 -64.17203 7.90668 -88.94203 6.93128 1.10948 44.01873 -5.70086 -3.33403 -21.84255 -6.97972 -3.87635 -2.68514 48.25698 10.78119 -1.93174 -27.05527 -6.94594 3.35721 2.40013
0.0001 0 3e-05 -180.0868 -40.24579 -3.27326 49.82495 2.76528 -2.45691 -21.70126 -1.45744 -0.51266 40.19148 -107.52979 64.1706 13.45732 84.1508 3.77739 -1.85325 26.61564 106.59376 -64.17101 7.9056 -88.92327 6.92708 1.10774 44.02478 -5.70366 -3.34648 -21.84202 -6.97909 -3.87456 -2.68447 48.26099 10.77805 -1.9456 -27.05489 -6.94536 3.3559 2.39961
0.0001 -0 4e-05 -180.09216 -40.25075 -3.27558 49.83114 2.76701 -2.45562 -21.68395 -1.4559 -0.51289 40.24875 -107.50005 64.17061 13.43564 84.1516 3.78989 -1.84241 26.58606 106.57174 -64.16996 7.90438 -88.90447 6.92295 1.10625 44.03104 -5.70641 -3.35903 -21.84143 -6.97848 -3.87281 -2.68384 48.26518 10.77497 -1.95946 -27.05451 -6.94478 3.35456 2.39907
0.0001 -0 4e-05 -180.09739 -40.25554 -3.27781 49.83722 2.7687 -2.45451 -21.66693 -1.45427 -0.51312 40.30555 -107.47035 64.17061 13.41478 84.15242 3.80177 -1.83149 26.55692 106.5497 -64.16893 7.90329 -88.88571 6.91876 1.10454 44.03712 -5.7092 -3.37149 -21.84089 -6.97785 -3.87102 -2.68317 48.26921 10.77184 -1.97327 -27.05413 -6.9442 3.35324 2.39855
0.0001 -1e-05 5e-05 -180.10246 -40.26011 -3.27993 49.84318 2.77033 -2.45364 -21.65029 -1.45249 -0.51335 40.36219 -107.4405 64.17062 13.39502 84.15328 3.81281 -1.82032 26.52815 106.52758 -64.16795 7.90236 -88.86695 6.91447 1.10251 44.04295 -5.71205 -3.38385 -21.84043 -6.97719 -3.86919 -2.68246 48.27299 10.76861 -1.98725 -27.05376 -6.94363 3.35197 2.39806
0.0001 -1e-05 5e-05 -180.10843 -40.26594 -3.28269 49.8499 2.77225 -2.45148 -21.63151 -1.45144 -0.51359 40.42101 -107.4109 64.17062 13.36922 84.15395 3.82843 -1.81015 26.49677 106.50576 -64.16673 7.90053 -88.84807 6.91066 1.10218 44.05012 -5.71459 -3.39679 -21.83955 -6.97669 -3.86762 -2.68198 48.27807 10.76586 -2.00096 -27.05333 -6.94301 3.35048 2.39742
0.0001 -1e-05 6e-05 -180.11252 -40.26913 -3.28409 49.85498 2.77361 -2.45198 -21.61721 -1.44892 -0.51379 40.47443 -107.38116 64.17064 13.35599 84.15501 3.83457 -1.79814 26.4712 106.48341 -64.16602 7.90056 -88.82952 6.90592 1.09834 44.0545 -5.71779 -3.4085 -21.83954 -6.97585 -3.8655 -2.68102 48.28047 10.76217 -2.01479 -27.05304 -6.9425 3.34943 2.39707
0.0001 -2e-05 6e-05 -180.1113 -40.26468 -3.28184 49.85564 2.77306 -2.46017 -21.61581 -1.44183 -0.51391 40.51938 -107.34806 64.17072 13.37893 84.15729 3.81287 -1.77877 26.45919 106.45864 -64.16674 7.90613 -88.81105 6.89772 1.08392 44.05085 -5.72267 -3.41683 -21.84218 -6.97405 -3.86187 -2.67866 48.2751 10.75522 -2.03238 -27.05317 -6.94232 3.34981 2.39766
9e-05 -2e-05 7e-05 -180.10822 -40.25763 -3.27821 49.85461 2.77202 -2.47094 -21.61882 -1.43336 -0.51398 40.55773 -107.31547 64.17082 13.41421 84.15993 3.78183 -1.75794 26.45349 106.43357 -64.16795 7.91352 -88.79305 6.88867 1.06608 44.04445 -5.72822 -3.42385 -21.84568 -6.97192 -3.8577 -2.67583 48.26712 10.74749 -2.04924 -27.05344 -6.94225 3.35055 2.39848
9e-05 -2e-05 8e-05 -180.10608 -40.25204 -3.27515 49.85431 2.77146 -2.48028 -21.61941 -1.42586 -0.51407 40.59491 -107.28451 64.17091 13.44265 84.16233 3.75649 -1.73931 26.44642 106.40917 -64.16891 7.91977 -88.77533 6.88067 1.05047 44.03954 -5.73357 -3.43156 -21.84863 -6.96995 -3.85376 -2.67325 48.26062 10.74047 -2.0645 -27.05362 -6.94211 3.35103 2.3991
8e-05 -2e-05 9e-05 -180.10352 -40.24533 -3.27232 49.85421 2.76981 -2.49077 -21.6217 -1.41693 -0.51417 40.6496 -107.24537 64.17102 13.47611 84.1651 3.7257 -1.71429 26.4329 106.38225 -64.17002 7.92721 -88.75548 6.87014 1.03219 44.0336 -5.73854 -3.43919 -21.8522 -6.96791 -3.84984 -2.67049 48.25292 10.73173 -2.08886 -27.0539 -6.94206 3.35208 2.40019
8e-05 -2e-05 0.0001 -180.10141 -40.24029 -3.26867 49.85324 2.77031 -2.49941 -21.62157 -1.41063 -0.51423 40.66634 -107.22379 64.17109 13.50228 84.16714 3.70314 -1.70211 26.43447 106.36085 -64.17092 7.93273 -88.74026 6.86432 1.01842 44.02915 -5.74439 -3.44626 -21.85472 -6.96597 -3.84579 -2.66801 48.24707 10.72666 -2.09293 -27.054 -6.94182 3.35184 2.40026
8e-05 -2e-05 0.00012 -180.10083 -40.24076 -3.26331 49.85084 2.77685 -2.50266 -21.61316 -1.41215 -0.51415 40.57974 -107.2468 64.17102 13.50317 84.16751 3.71351 -1.72681 26.47476 106.35173 -64.17106 7.93143 -88.73687 6.87491 1.02012 44.02953 -5.75311 -3.45582 -21.85395 -6.96422 -3.84115 -2.66622 48.24728 10.72948 -2.0518 -27.05354 -6.94127 3.34971 2.39826
9e-05 -2e-05 0.00015 -180.10079 -40.24293 -3.25715 49.84754 2.78557 -2.50389 -21.60229 -1.41632 -0.51402 40.4555 -107.28805 64.1709 13.49664 84.16708 3.7311 -1.76429 26.5303 106.34871 -64.17095 7.9283 -88.73825 6.88973 1.0261 44.03149 -5.76259 -3.46432 -21.85212 -6.96261 -3.83645 -2.66477 48.2494 10.73636 -1.98886 -27.0529 -6.94048 3.34602 2.39511
9e-05 -2e-05 0.00017 -180.10061 -40.24411 -3.25121 49.84426 2.79331 -2.50579 -21.59285 -1.41918 -0.51391 40.3482 -107.32357 64.1708 13.49492 84.16674 3.7401 -1.79525 26.57974 106.34491 -64.17097 7.92674 -88.73804 6.90045 1.02867 44.03269 -5.77132 -3.47069 -21.85089 -6.96106 -3.83204 -2.66331 48.25043 10.74314 -1.92814 -27.05237 -6.93959 3.34182 2.39191
0.0001 -2e-05 0.0002 -180.09991 -40.24611 -3.24577 49.84248 2.801 -2.50878 -21.58209 -1.42252 -0.5138 40.24012 -107.34878 64.17069 13.48773 84.16754 3.77082 -1.82921 26.62577 106.3328 -64.17098 7.92222 -88.73556 6.92007 1.03719 44.03395 -5.78176 -3.48745 -21.84922 -6.95899 -3.82654 -2.66123 48.25225 10.74301 -1.89744 -27.05172 -6.93951 3.34251 2.39096
0.0001 -2e-05 0.00022 -180.10045 -40.24687 -3.2392 49.8375 2.80928 -2.50906 -21.57361 -1.4254 -0.51369 40.12639 -107.39918 64.1706 13.4898 84.16582 3.7586 -1.85989 26.68261 106.3393 -64.17093 7.92329 -88.73873 6.92249 1.03454 44.03553 -5.78885 -3.48308 -21.8482 -6.95803 -3.82328 -2.6605 48.25299 10.75761 -1.80209 -27.05127 -6.93776 3.33298 2.38525
0.00012 -1e-05 0.00024 -180.10439 -40.24343 -3.22904 49.82282 2.81908 -2.50174 -21.5705 -1.42721 -0.51363 39.99322 -107.51971 64.17054 13.52114 84.15695 3.62227 -1.8792 26.76438 106.39704 -64.17076 7.94118 -88.75827 6.87382 0.99854 44.03736 -5.78604 -3.41405 -21.84928 -6.96021 -3.82644 -2.66358 48.24969 10.81743 -1.50692 -27.05135 -6.93091 3.29246 2.3649
